<svg width="26" height="32" viewBox="0 0 26 32" xmlns="http://www.w3.org/2000/svg"><path d="M20.454 16.226c-1.275 1.59-3.271 1.442-4.147 1.116-.25 1.028.874 2.971.784 2.883-1.136-1.112-2.705-1.825-3.379-3.299l6.233-6.062.285.313.746-1.49c.297.344.567.915.671 1.342.24.974-.05 1.762-.722 2.53.102.7.276 1.735-.471 2.667m-11.138-.498l8.217-7.97.266.291.75-1.498c2.106 1.381 2.196 2.912 2.272 2.995l-1.509.656.311.341-6.15 5.966c-1.596.97-3.767.994-4.157-.781m-2.52.496c-1.79-.737-1.34-2.172-1.357-2.184l7.983-7.743.267.294.75-1.5c.49.217 1.022.674 1.228 1.19.816-.404 1.888-.25 2.702.146l-1.487.648.321.353-8.8 8.535s-.75.614-1.607.261m-1.39-7.55c.534-.662 2.087-1.577 2.974-1.562 1.572-2.784 4.699-2.432 5.86-2.135l-1.468.64.32.35L5.08 13.74c-.655-.687-1.268-3.09.327-5.066m17.362-4.217A12.97 12.97 0 0 0 12.993 0C9.84 0 6.793 1.156 4.42 3.253c-5.388 4.76-5.926 13.05-1.195 18.473l.09.098L13.046 32l9.635-10.176c2.004-2.117 3.1-4.92 3.292-7.883a13.058 13.058 0 0 0-3.203-9.485" fill="#FFF" fill-rule="evenodd"/></svg>
