<svg width="101" height="45" viewBox="0 0 101 45" xmlns="http://www.w3.org/2000/svg" xmlns:xlink="http://www.w3.org/1999/xlink"><defs><path id="a" d="M.347.084h5.574v9.82H.347z"/></defs><g fill="none" fill-rule="evenodd"><path d="M42.723 20.544c0-4.186 3.174-6.844 7.062-6.844 2.738 0 4.463 1.389 5.455 2.956l-2.32 1.27c-.615-.933-1.746-1.727-3.135-1.727-2.42 0-4.166 1.845-4.166 4.345s1.746 4.344 4.166 4.344c1.885 0 3.016-1.21 3.432-2.599h-4.126v-2.48h7.22c0 4.722-2.559 7.579-6.784 7.579-3.63 0-6.804-2.679-6.804-6.844M63.841 24.055v-3.372c-.416-.635-1.329-1.111-2.162-1.111-1.448 0-2.44 1.13-2.44 2.777 0 1.666.992 2.797 2.44 2.797.833 0 1.746-.457 2.162-1.091zm0 3.095v-1.23c-.754.952-1.785 1.468-2.955 1.468-2.4 0-4.246-1.826-4.246-5.04 0-3.113 1.806-5.018 4.246-5.018 1.13 0 2.182.476 2.955 1.468v-1.23h2.54v9.582h-2.54zM68.726 24.75v-4.98H67.14v-2.202h1.586V14.95h2.52v2.618h1.944v2.202h-1.944v4.305c0 .614.317 1.071.873 1.071.376 0 .733-.139.872-.298l.536 1.924c-.377.338-1.051.615-2.103.615-1.765 0-2.698-.912-2.698-2.638M80.784 27.15v-5.833c0-1.33-.694-1.745-1.766-1.745-.991 0-1.765.555-2.182 1.11v6.468h-2.539V13.918h2.54v4.88c.614-.714 1.785-1.468 3.352-1.468 2.102 0 3.114 1.15 3.114 3.015v6.805h-2.52zM89.353 19.393c-1.568 0-2.242 1.09-2.341 2.044h4.721c-.08-.913-.714-2.044-2.38-2.044m-4.96 2.956c0-2.777 2.063-5.019 4.96-5.019 2.876 0 4.8 2.142 4.8 5.257v.595h-7.122c.18 1.17 1.131 2.142 2.758 2.142.814 0 1.924-.337 2.539-.932l1.13 1.666c-.951.873-2.46 1.33-3.947 1.33-2.916 0-5.117-1.964-5.117-5.04" fill="#B71F59"/><g transform="translate(94.868 17.246)"><mask id="b" fill="#fff"><use xlink:href="#a"/></mask><path d="M.347 9.903V.323h2.52v1.289C3.56.778 4.73.084 5.922.084v2.46a3.19 3.19 0 0 0-.695-.06c-.833 0-1.943.476-2.36 1.091v6.328H.347z" fill="#B71F59" mask="url(#b)"/></g><path d="M27.852 21.947c-1.735 2.15-4.454 1.95-5.647 1.51-.34 1.39 1.19 4.018 1.068 3.9-1.546-1.505-3.684-2.47-4.601-4.463l8.487-8.2.388.423 1.017-2.015c.403.466.771 1.239.913 1.816.327 1.316-.067 2.382-.983 3.422.138.946.376 2.346-.642 3.607m-15.167-.674l11.19-10.78.362.394 1.022-2.026c2.867 1.868 2.99 3.938 3.092 4.051l-2.053.887.423.462-8.376 8.07c-2.172 1.31-5.128 1.343-5.66-1.058m-3.43.671c-2.439-.996-1.825-2.938-1.849-2.954l10.87-10.473.365.397 1.022-2.027c.667.293 1.39.911 1.67 1.608 1.112-.546 2.572-.339 3.68.198l-2.025.876.438.478L11.443 21.59s-1.021.83-2.189.353M7.362 11.731c.727-.895 2.842-2.132 4.05-2.111 2.14-3.767 6.397-3.29 7.979-2.888l-2 .864.437.475-10.91 10.512c-.892-.93-1.727-4.179.444-6.852m23.643-5.704A17.711 17.711 0 0 0 17.693 0 17.693 17.693 0 0 0 6.02 4.4c-7.337 6.44-8.07 17.652-1.627 24.986.04.045.082.087.123.133l13.248 13.764 13.12-13.764c2.73-2.863 4.222-6.655 4.483-10.662a17.587 17.587 0 0 0-4.361-12.83" fill="#B71F59"/><path d="M11.26 44.305c0-.196 2.87-.354 6.41-.354s6.41.158 6.41.354c0 .197-2.87.355-6.41.355s-6.41-.158-6.41-.355" fill="#CFD4DB"/></g></svg>
