<svg width="208" height="208" viewBox="0 0 208 208" xmlns="http://www.w3.org/2000/svg"><g><path fill="#F1F1F1" d="M0 0h208v208H0z"/><path d="M186 208v-17.103c0-8.308-5.372-15.36-12.829-17.858-.587-.2-38.755-9.948-44.217-20.793-2.492-4.955-.035-11.302 2.452-15.68a76.07 76.07 0 0 0 3.323-4.854v-.01c6.467-10.347 11.402-23.956 11.904-40.78.756-25.308-18.828-45.862-42.078-45.922h-.11c-23.245.06-42.829 20.614-42.068 45.923.503 16.823 5.433 30.433 11.899 40.78 0 0 .005 0 .005.01a73.527 73.527 0 0 0 3.318 4.854c2.488 4.378 4.944 10.725 2.453 15.68-5.458 10.844-43.63 20.594-44.218 20.793C28.378 175.537 23 182.59 23 190.898V208h163z" fill="#4B5357" fill-rule="nonzero" opacity=".762"/></g></svg>
